<svg id="visual" viewBox="0 0 900 600" width="900" height="600" xmlns="http://www.w3.org/2000/svg" xmlns:xlink="http://www.w3.org/1999/xlink" version="1.1"><path d="M0 402L25 398.8C50 395.7 100 389.3 150 391.2C200 393 250 403 300 409.5C350 416 400 419 450 422.2C500 425.3 550 428.7 600 425C650 421.3 700 410.7 750 406.8C800 403 850 406 875 407.5L900 409L900 601L875 601C850 601 800 601 750 601C700 601 650 601 600 601C550 601 500 601 450 601C400 601 350 601 300 601C250 601 200 601 150 601C100 601 50 601 25 601L0 601Z" fill="#ac09f6"></path><path d="M0 484L25 483.5C50 483 100 482 150 480.7C200 479.3 250 477.7 300 474C350 470.3 400 464.7 450 464C500 463.3 550 467.7 600 470C650 472.3 700 472.7 750 472.3C800 472 850 471 875 470.5L900 470L900 601L875 601C850 601 800 601 750 601C700 601 650 601 600 601C550 601 500 601 450 601C400 601 350 601 300 601C250 601 200 601 150 601C100 601 50 601 25 601L0 601Z" fill="#c41ac9"></path><path d="M0 544L25 542.2C50 540.3 100 536.7 150 534.3C200 532 250 531 300 530.2C350 529.3 400 528.7 450 524C500 519.3 550 510.7 600 513.7C650 516.7 700 531.3 750 533.2C800 535 850 524 875 518.5L900 513L900 601L875 601C850 601 800 601 750 601C700 601 650 601 600 601C550 601 500 601 450 601C400 601 350 601 300 601C250 601 200 601 150 601C100 601 50 601 25 601L0 601Z" fill="#c73aa6"></path></svg>